<?xml version="1.0" encoding="utf-8"?>
<!-- Generator: Adobe Illustrator 13.0.0, SVG Export Plug-In . SVG Version: 6.00 Build 14948)  -->
<!DOCTYPE svg PUBLIC "-//W3C//DTD SVG 1.1//EN" "http://www.w3.org/Graphics/SVG/1.1/DTD/svg11.dtd">
<svg version="1.1" id="RSSicon" xmlns="http://www.w3.org/2000/svg" xmlns:xlink="http://www.w3.org/1999/xlink" x="0px" y="0px"
	 width="128px" height="128px" viewBox="0 0 128 128" enable-background="new 0 0 128 128" xml:space="preserve">
<path fill="#CC5D15" d="M27.5,0h73C115.688,0,128,12.312,128,27.5v73c0,15.188-12.313,27.5-27.5,27.5h-73
	C12.312,128,0,115.688,0,100.5v-73C0,12.312,12.312,0,27.5,0z"/>
<path fill="#F49C52" d="M27.5,2.5h73c13.807,0,25,11.193,25,25v73c0,13.807-11.193,25-25,25h-73c-13.807,0-25-11.193-25-25v-73
	C2.5,13.693,13.693,2.5,27.5,2.5z"/>
<linearGradient id="SVGID_1_" gradientUnits="userSpaceOnUse" x1="-240.3594" y1="456.5977" x2="-239.5294" y2="455.7677" gradientTransform="matrix(118 0 0 -118 28377.5 53893.5)">
	<stop  offset="0" style="stop-color:#E3702D"/>
	<stop  offset="0.1071" style="stop-color:#EA7D31"/>
	<stop  offset="0.3503" style="stop-color:#F69537"/>
	<stop  offset="0.5" style="stop-color:#FB9E3A"/>
	<stop  offset="0.7016" style="stop-color:#EA7C31"/>
	<stop  offset="0.8866" style="stop-color:#DE642B"/>
	<stop  offset="1" style="stop-color:#D95B29"/>
</linearGradient>
<path fill="url(#SVGID_1_)" d="M28.5,5h71C112.479,5,123,15.521,123,28.5v71c0,12.979-10.521,23.5-23.5,23.5h-71
	C15.521,123,5,112.479,5,99.5v-71C5,15.521,15.521,5,28.5,5z"/>
<path fill="#FFFFFF" d="M82.133,76.646l-13.912-5.567v-11.84c0-2.459-1.998-4.457-4.457-4.457c-2.46,0-4.459,1.998-4.459,4.457
	v11.84l-13.952,5.595c-6.586,2.637-10.838,8.928-10.838,16.022l-0.006,11.119c0,2.46,1.998,4.458,4.459,4.458
	c2.458,0,4.457-1.998,4.457-4.458V92.696c0-3.43,2.06-6.472,5.241-7.748l10.638-4.262v13.225c0,2.46,1.998,4.459,4.458,4.459
	c2.459,0,4.457-1.999,4.457-4.459V80.682l10.605,4.24c3.186,1.275,5.245,4.319,5.245,7.749v11.144c0,2.461,1.998,4.459,4.457,4.459
	c2.461,0,4.457-1.998,4.457-4.459V92.671C92.983,85.571,88.724,79.279,82.133,76.646L82.133,76.646z"/>
<path fill="#FFFFFF" d="M76.213,20.113c-17.117,0-31.982,11.584-36.362,27.621c-0.797-0.083-1.598-0.122-2.407-0.122
	c-13.146-0.004-23.842,10.635-23.842,23.707c0,6.966,3.073,13.556,8.427,18.076c0.836,0.704,1.858,1.048,2.873,1.048
	c1.267,0,2.525-0.539,3.409-1.585c1.589-1.881,1.349-4.692-0.531-6.28c-3.344-2.821-5.264-6.927-5.264-11.259
	c0-8.158,6.695-14.792,14.927-14.792c1.521,0,2.996,0.235,4.51,0.723c1.254,0.4,2.621,0.227,3.736-0.47
	c1.114-0.7,1.862-1.858,2.041-3.165C49.662,39.6,61.908,29.029,76.212,29.029c15.863,0,28.77,12.803,28.77,28.54
	c0,7.226-2.737,14.126-7.71,19.429c-1.685,1.793-1.592,4.613,0.206,6.304c1.798,1.684,4.618,1.593,6.304-0.206
	c6.52-6.96,10.116-16.023,10.116-25.527c0-20.651-16.908-37.455-37.686-37.455L76.213,20.113z"/>
</svg>
