<?xml version="1.0" encoding="utf-8"?>
<!-- Generator: Adobe Illustrator 13.0.0, SVG Export Plug-In . SVG Version: 6.00 Build 14948)  -->
<!DOCTYPE svg PUBLIC "-//W3C//DTD SVG 1.1//EN" "http://www.w3.org/Graphics/SVG/1.1/DTD/svg11.dtd">
<svg version="1.1" id="Layer_1" xmlns="http://www.w3.org/2000/svg" xmlns:xlink="http://www.w3.org/1999/xlink" x="0px" y="0px"
	 width="512px" height="512px" viewBox="0 14 512 512" enable-background="new 0 14 512 512" xml:space="preserve">
<path fill="#EF8728" d="M346.403,338.433l-68.169-27.277v-58.017c0-12.052-9.79-21.842-21.842-21.842s-21.842,9.791-21.842,21.842
	v58.017l-68.366,27.408c-32.275,12.929-53.114,43.749-53.114,78.519l-0.021,54.479c0,12.053,9.791,21.843,21.842,21.843
	s21.843-9.79,21.843-21.843v-54.479c0-16.811,10.089-31.718,25.679-37.97l52.13-20.881v64.8c0,12.052,9.791,21.842,21.842,21.842
	c12.052,0,21.842-9.79,21.842-21.842v-64.825l51.961,20.776c15.614,6.249,25.704,21.159,25.704,37.97v54.604
	c0,12.054,9.79,21.844,21.843,21.844s21.842-9.79,21.842-21.844v-54.604c0-34.791-20.88-65.614-53.177-78.52H346.403z"/>
<path fill="#EF8728" d="M317.395,61.42c-83.867,0-156.714,56.764-178.172,135.341c-3.904-0.404-7.828-0.595-11.794-0.595
	c-64.421-0.021-116.827,52.109-116.827,116.165c0,34.129,15.06,66.424,41.294,88.567c4.095,3.452,9.107,5.139,14.077,5.139
	c6.208,0,12.375-2.645,16.702-7.764c7.787-9.216,6.612-22.993-2.604-30.778c-16.381-13.823-25.789-33.938-25.789-55.164
	c0-39.974,32.808-72.478,73.145-72.478c7.444,0,14.676,1.149,22.097,3.541c6.145,1.963,12.84,1.108,18.301-2.304
	c5.462-3.432,9.127-9.107,10.003-15.506c9.469-68.682,69.474-120.475,139.565-120.475c77.727,0,140.973,62.733,140.973,139.843
	c0,35.406-13.415,69.218-37.777,95.199c-8.254,8.787-7.808,22.61,1.003,30.888c8.812,8.252,22.63,7.808,30.887-1.004
	c31.954-34.108,49.571-78.519,49.571-125.082c0-101.191-82.846-183.526-184.656-183.526L317.395,61.42z"/>
</svg>
